<svg xmlns="http://www.w3.org/2000/svg" viewBox="0 0 400 260">
<rect width="400" height="260" fill="#f8f8f8"/>
<rect width="400" height="30" fill="#eee"/>
<circle cx="15" cy="15" r="5" fill="#ff5f56"/>
<circle cx="32" cy="15" r="5" fill="#ffbd2e"/>
<circle cx="49" cy="15" r="5" fill="#27c93f"/>
<text x="200" y="19" text-anchor="middle" font-family="monospace" font-size="11" fill="#666">SwipeHire.io</text>
<rect x="130" y="55" width="140" height="170" rx="12" fill="#e0d4f7" stroke="#6d28d9" stroke-width="1.5" transform="rotate(-8 200 140)"/>
<rect x="130" y="55" width="140" height="170" rx="12" fill="#f0e6ff" stroke="#6d28d9" stroke-width="1.5" transform="rotate(-3 200 140)"/>
<rect x="130" y="55" width="140" height="170" rx="12" fill="#fff" stroke="#6d28d9" stroke-width="2"/>
<circle cx="200" cy="105" r="22" fill="#6d28d9" opacity="0.15"/>
<circle cx="200" cy="105" r="14" fill="#6d28d9" opacity="0.3"/>
<rect x="160" y="140" width="80" height="8" rx="4" fill="#6d28d9" opacity="0.5"/>
<rect x="170" y="155" width="60" height="6" rx="3" fill="#ec4899" opacity="0.4"/>
<rect x="175" y="168" width="50" height="6" rx="3" fill="#6d28d9" opacity="0.2"/>
<text x="110" y="150" font-size="24" fill="#ef4444" opacity="0.6">&#x2717;</text>
<text x="285" y="150" font-size="24" fill="#22c55e" opacity="0.6">&#x2713;</text>
<rect x="155" y="190" width="90" height="22" rx="11" fill="#6d28d9"/>
<text x="200" y="205" text-anchor="middle" font-family="sans-serif" font-size="10" fill="#fff" font-weight="bold">AI Match</text>
<text x="20" y="248" font-family="monospace" font-size="10" fill="#999">$ swipehire --deploy</text>
</svg>
