<svg xmlns="http://www.w3.org/2000/svg" viewBox="0 0 400 260">
<rect width="400" height="260" fill="#111111"/>
<rect width="400" height="30" fill="#1a1a1a"/>
<circle cx="15" cy="15" r="5" fill="#ff5f56"/>
<circle cx="32" cy="15" r="5" fill="#ffbd2e"/>
<circle cx="49" cy="15" r="5" fill="#27c93f"/>
<text x="200" y="19" text-anchor="middle" font-family="monospace" font-size="11" fill="#666">WhoozCooking API</text>
<rect x="30" y="70" width="38" height="24" fill="#f97316" opacity="0.15"/><rect x="75" y="70" width="38" height="24" fill="#f97316" opacity="0.15"/><rect x="120" y="70" width="38" height="24" fill="#f97316" opacity="0.15"/><rect x="165" y="70" width="38" height="24" fill="#f97316" opacity="0.15"/><rect x="210" y="70" width="38" height="24" fill="#f97316" opacity="0.15"/><rect x="255" y="70" width="38" height="24" fill="#f97316" opacity="0.15"/><rect x="300" y="70" width="38" height="24" fill="#f97316" opacity="0.15"/><rect x="345" y="70" width="38" height="24" fill="#f97316" opacity="0.15"/><rect x="30" y="100" width="38" height="24" fill="#f97316" opacity="0.15"/><rect x="75" y="100" width="38" height="24" fill="#f97316" opacity="0.3"/><rect x="120" y="100" width="38" height="24" fill="#f97316" opacity="0.44999999999999996"/><rect x="165" y="100" width="38" height="24" fill="#f97316" opacity="0.6"/><rect x="210" y="100" width="38" height="24" fill="#f97316" opacity="0.75"/><rect x="255" y="100" width="38" height="24" fill="#f97316" opacity="0.15"/><rect x="300" y="100" width="38" height="24" fill="#f97316" opacity="0.3"/><rect x="345" y="100" width="38" height="24" fill="#f97316" opacity="0.44999999999999996"/><rect x="30" y="130" width="38" height="24" fill="#f97316" opacity="0.15"/><rect x="75" y="130" width="38" height="24" fill="#f97316" opacity="0.44999999999999996"/><rect x="120" y="130" width="38" height="24" fill="#f97316" opacity="0.75"/><rect x="165" y="130" width="38" height="24" fill="#f97316" opacity="0.3"/><rect x="210" y="130" width="38" height="24" fill="#f97316" opacity="0.6"/><rect x="255" y="130" width="38" height="24" fill="#f97316" opacity="0.15"/><rect x="300" y="130" width="38" height="24" fill="#f97316" opacity="0.44999999999999996"/><rect x="345" y="130" width="38" height="24" fill="#f97316" opacity="0.75"/><rect x="30" y="160" width="38" height="24" fill="#f97316" opacity="0.15"/><rect x="75" y="160" width="38" height="24" fill="#f97316" opacity="0.6"/><rect x="120" y="160" width="38" height="24" fill="#f97316" opacity="0.3"/><rect x="165" y="160" width="38" height="24" fill="#f97316" opacity="0.75"/><rect x="210" y="160" width="38" height="24" fill="#f97316" opacity="0.44999999999999996"/><rect x="255" y="160" width="38" height="24" fill="#f97316" opacity="0.15"/><rect x="300" y="160" width="38" height="24" fill="#f97316" opacity="0.6"/><rect x="345" y="160" width="38" height="24" fill="#f97316" opacity="0.3"/><rect x="30" y="190" width="38" height="24" fill="#f97316" opacity="0.15"/><rect x="75" y="190" width="38" height="24" fill="#f97316" opacity="0.75"/><rect x="120" y="190" width="38" height="24" fill="#f97316" opacity="0.6"/><rect x="165" y="190" width="38" height="24" fill="#f97316" opacity="0.44999999999999996"/><rect x="210" y="190" width="38" height="24" fill="#f97316" opacity="0.3"/><rect x="255" y="190" width="38" height="24" fill="#f97316" opacity="0.15"/><rect x="300" y="190" width="38" height="24" fill="#f97316" opacity="0.75"/><rect x="345" y="190" width="38" height="24" fill="#f97316" opacity="0.6"/>
<text x="20" y="245" font-family="monospace" font-size="10" fill="#666">$ analyze --dataset whoozcooking</text>
</svg>